<svg width="14" height="14" viewBox="0 0 14 14" fill="none" xmlns="http://www.w3.org/2000/svg">
<path d="M7.5 2.75C7.5 2.55109 7.42098 2.36032 7.28033 2.21967C7.13968 2.07902 6.94891 2 6.75 2C6.55109 2 6.36032 2.07902 6.21967 2.21967C6.07902 2.36032 6 2.55109 6 2.75V6H2.75C2.55109 6 2.36032 6.07902 2.21967 6.21967C2.07902 6.36032 2 6.55109 2 6.75C2 6.94891 2.07902 7.13968 2.21967 7.28033C2.36032 7.42098 2.55109 7.5 2.75 7.5H6V10.75C6 10.9489 6.07902 11.1397 6.21967 11.2803C6.36032 11.421 6.55109 11.5 6.75 11.5C6.94891 11.5 7.13968 11.421 7.28033 11.2803C7.42098 11.1397 7.5 10.9489 7.5 10.75V7.5H10.75C10.9489 7.5 11.1397 7.42098 11.2803 7.28033C11.421 7.13968 11.5 6.94891 11.5 6.75C11.5 6.55109 11.421 6.36032 11.2803 6.21967C11.1397 6.07902 10.9489 6 10.75 6H7.5V2.75Z" fill="black"/>
<rect x="0.5" y="0.5" width="13" height="13" rx="3.5" stroke="black"/>
</svg>
