<svg width="496" height="512" viewBox="0 0 496 512" fill="none" xmlns="http://www.w3.org/2000/svg">
<path d="M347.94 129.86L203.6 195.83C196.619 199.021 191.021 204.619 187.83 211.6L121.86 355.94C114.25 372.59 131.4 389.75 148.06 382.14L292.4 316.17C299.381 312.979 304.979 307.381 308.17 300.4L374.14 156.06C381.75 139.4 364.6 122.25 347.94 129.86V129.86ZM270.58 278.58C258.11 291.05 237.89 291.05 225.42 278.58C212.95 266.11 212.95 245.89 225.42 233.42C237.89 220.95 258.11 220.95 270.58 233.42C283.05 245.89 283.05 266.11 270.58 278.58ZM248 8C111.03 8 0 119.03 0 256C0 392.97 111.03 504 248 504C384.97 504 496 392.97 496 256C496 119.03 384.97 8 248 8ZM248 456C137.72 456 48 366.28 48 256C48 145.72 137.72 56 248 56C358.28 56 448 145.72 448 256C448 366.28 358.28 456 248 456Z" fill="black"/>
</svg>
